<svg width="68" height="58" viewBox="0 0 68 58" fill="none" xmlns="http://www.w3.org/2000/svg">
<path fill-rule="evenodd" clip-rule="evenodd" d="M50.148 5.24609C48.4944 12.198 47.961 15.4601 46.7341 20.4869C45.5073 25.4067 44.5471 29.8987 42.9469 32.0378C41.3466 34.1768 39.1596 34.7651 37.5061 34.872C36.7059 35.0324 36.1725 35.0324 34.519 35.0324C32.8654 35.0324 32.2253 35.0324 31.5318 34.872C30.0383 34.7116 27.8513 34.1768 26.091 32.0378C24.4374 29.8452 23.5306 25.3532 22.3038 20.4869C21.0769 15.4601 20.3835 12.198 18.89 5.24609C18.89 5.24609 17.3964 5.24609 16.5963 5.40652C15.6361 5.40652 14.9427 5.40652 14.1426 5.56695C14.1426 5.56695 15.1027 20.0056 15.4761 25.9949C15.9028 32.4121 16.703 43.1074 17.3964 51.2893C17.3964 51.2893 18.7299 51.5566 20.9169 51.5566C23.1039 51.824 24.1707 51.9845 24.1707 51.9845C25.1309 48.455 26.3577 43.4282 27.5846 41.2357C28.6514 39.471 30.305 39.3106 31.2651 39.2036C32.7587 39.0432 33.9855 38.9362 34.519 38.9362C35.0524 38.9362 36.2792 38.9362 37.7728 39.2036C38.7329 39.364 40.3332 39.471 41.4533 41.2357C42.7869 43.4282 43.907 48.2946 44.8672 51.9845C44.8672 51.9845 45.8273 51.9845 48.121 51.824C50.308 51.6636 51.6415 51.5566 51.6415 51.5566C52.3349 43.3748 53.1351 32.626 53.5618 26.2623C53.9885 20.166 54.8953 5.83433 54.8953 5.83433C54.0952 5.67391 53.4018 5.67391 52.4416 5.56695C51.8015 5.24609 50.148 5.24609 50.148 5.24609Z" fill="black"/>
<path fill-rule="evenodd" clip-rule="evenodd" d="M64.4446 29.7397C63.9112 37.2264 63.2177 41.8253 62.4176 45.0874C61.6175 47.9216 60.6574 49.8468 59.1638 51.1837C56.7101 53.4832 53.3496 54.018 51.4293 54.3388C47.2154 55.034 40.0143 55.3014 34.4668 55.3014C28.9193 55.3014 21.7182 55.034 17.5043 54.3388C15.584 54.0714 12.2235 53.5367 9.76979 51.1837C8.27624 49.8468 7.3161 47.9216 6.51598 45.0874C5.55583 41.8253 4.96908 37.3333 4.43567 29.7397C4.16896 25.2477 4.16896 17.761 4.70237 13.8037C5.39581 7.97478 8.2229 4.9801 14.1971 3.8571C16.7575 3.32233 20.5981 2.89452 24.1186 2.78757C26.999 2.68062 31.7464 2.52019 34.3068 2.52019C36.8672 2.52019 41.6145 2.68062 44.495 2.78757C48.0155 2.948 51.8027 3.32233 54.6831 3.8571C60.6574 4.92663 63.4844 7.9213 64.1779 13.8037C64.5513 17.9214 64.7113 25.2477 64.4446 29.7397ZM67.6984 13.9641C66.7383 4.55229 60.764 2.52019 55.4833 1.61109C52.7629 1.18328 48.1755 0.808943 45.0284 0.648514C42.4146 0.381132 36.1737 0.220703 34.3068 0.220703C32.3865 0.220703 26.1456 0.381132 23.5852 0.488085C20.5981 0.648514 15.8507 1.02285 13.1303 1.55761C7.84951 2.52019 1.87529 4.39186 0.915144 13.9107C0.648438 16.4775 0.648438 19.9 0.648438 23.4295C0.808461 29.4188 1.18185 33.483 1.44856 36.2103C1.60858 38.1355 2.4087 43.9644 3.36884 46.7986C4.70237 50.8628 5.92922 52.0928 7.3161 53.3228C9.87648 55.5153 14.2505 56.157 15.2106 56.4779C20.118 57.4404 29.8794 57.5474 34.2001 57.5474C38.5207 57.5474 48.3355 57.387 53.1896 56.4779C54.1497 56.3174 58.3637 55.6757 61.0841 53.3228C62.5776 52.0928 63.6445 50.8628 65.0313 46.7986C65.9915 43.804 66.7916 38.082 66.9516 36.2103C67.2183 33.3761 67.7517 29.4188 67.7517 23.4295C67.9651 19.7931 67.9651 16.531 67.6984 13.9641Z" fill="black"/>
</svg>
