<svg width="102" height="24" viewBox="0 0 102 24" fill="none" xmlns="http://www.w3.org/2000/svg">
<path d="M59.0677 21.2692C59.0677 21.4622 59.1286 21.5738 59.2402 21.5738C59.3316 21.5637 59.4127 21.523 59.4839 21.4723L91.1232 0.936202C91.6577 0.562481 92.2982 0.370296 92.9502 0.387942H99.9034C100.969 0.387942 101.69 1.0986 101.69 2.16439V15.4424C101.69 17.0463 101.335 17.9803 99.9135 18.8329L91.4783 23.9086C91.3942 23.967 91.2962 24.002 91.1941 24.0101C91.0926 24.0101 90.9911 23.9289 90.9911 23.6344V8.1435C90.9911 7.96069 90.9403 7.83894 90.8186 7.83894C90.7294 7.84918 90.645 7.88437 90.5749 7.94046L67.4519 22.9646C66.9241 23.3197 66.3049 23.5127 65.6755 23.5025H50.3481C49.2721 23.5025 48.5615 22.7919 48.5615 21.716V2.5804C48.5615 2.43842 48.5006 2.30636 48.3787 2.30636C48.2899 2.31767 48.2058 2.35275 48.1352 2.40789L32.8788 11.5643C32.7267 11.6659 32.6861 11.737 32.6861 11.808C32.6861 11.8689 32.7164 11.9298 32.8179 12.0414L43.7197 22.9339C43.8617 23.0758 43.9634 23.1877 43.9634 23.3094C43.9634 23.4109 43.801 23.4922 43.6081 23.4922H33.7619C32.9906 23.4922 32.3916 23.3806 31.9755 22.9644L25.3673 16.366C25.3422 16.3361 25.3113 16.3116 25.2764 16.2941C25.2415 16.2767 25.2034 16.2666 25.1644 16.2645C25.0928 16.2678 25.023 16.2887 24.9614 16.3254L13.9178 22.9646C13.2479 23.3705 12.7911 23.4823 12.1312 23.4823H1.97076C0.884433 23.4924 0.173828 22.7717 0.173828 21.7057V8.68165C0.173828 7.06741 0.529131 6.14359 1.96026 5.29096L10.4463 0.195011C10.5129 0.151441 10.5901 0.126894 10.6696 0.124023C10.8016 0.124023 10.8726 0.25608 10.8726 0.550339V17.9904C10.8726 18.1732 10.9132 18.2543 11.0451 18.2543C11.1365 18.2442 11.2178 18.2035 11.2989 18.1528L39.9642 0.905667C40.5123 0.530112 41.1822 0.347489 41.8522 0.377829H57.2811C58.3468 0.377829 59.0677 1.08848 59.0677 2.15427L59.0574 21.2692H59.0677Z" fill="#131E29"/>
</svg>
