<svg width="33" height="32" viewBox="0 0 33 32" fill="none" xmlns="http://www.w3.org/2000/svg">
<path d="M23 24.5734H17.6667L11.7333 28.52C10.8533 29.1067 9.66667 28.4801 9.66667 27.4134V24.5734C5.66667 24.5734 3 21.9067 3 17.9067V9.90666C3 5.90666 5.66667 3.23999 9.66667 3.23999H23C27 3.23999 29.6667 5.90666 29.6667 9.90666V17.9067C29.6667 21.9067 27 24.5734 23 24.5734Z" stroke="#AA2020" stroke-width="2" stroke-miterlimit="10" stroke-linecap="round" stroke-linejoin="round"/>
<path d="M16.3334 15.1466V14.8667C16.3334 13.96 16.8935 13.48 17.4535 13.0933C18.0001 12.72 18.5467 12.24 18.5467 11.36C18.5467 10.1334 17.5601 9.14665 16.3334 9.14665C15.1067 9.14665 14.1201 10.1334 14.1201 11.36" stroke="#AA2020" stroke-width="2" stroke-linecap="round" stroke-linejoin="round"/>
<path d="M16.3277 18.3333H16.3397" stroke="#AA2020" stroke-width="2" stroke-linecap="round" stroke-linejoin="round"/>
</svg>
