<svg width="89" height="58" viewBox="0 0 89 58" fill="none" xmlns="http://www.w3.org/2000/svg">
<path d="M63.9353 3.03523C58.511 1.25276 51.7871 0.217773 44.4982 0.217773C37.2092 0.217773 30.4854 1.25276 25.061 3.03523C10.6527 7.75017 0.764648 17.525 0.764648 28.7949C0.764648 44.6646 20.3148 57.5445 44.4417 57.5445C68.5685 57.5445 88.1187 44.6646 88.1187 28.7949C88.2317 17.525 78.3436 7.75017 63.9353 3.03523ZM44.4982 45.2396C40.8819 45.2396 37.9438 38.0522 37.7743 28.9674C39.9214 29.1399 42.1815 29.2549 44.4982 29.2549C46.8148 29.2549 49.0184 29.1399 51.222 28.9674C51.0525 37.9947 48.1144 45.2396 44.4982 45.2396ZM38.2263 21.8375C39.1869 15.4551 41.6165 10.9701 44.4982 10.9701C47.3233 10.9701 49.753 15.4551 50.77 21.8375C48.7924 22.01 46.6453 22.125 44.4982 22.125C42.351 22.125 40.2604 22.0675 38.2263 21.8375ZM54.6122 21.3775C53.1432 11.3726 49.1879 4.24272 44.4982 4.24272C39.8084 4.24272 35.8532 11.3726 34.3841 21.3775C25.5131 19.94 19.2977 16.7775 19.2977 13.0401C19.2977 7.98016 30.5419 3.89772 44.4417 3.89772C58.3415 3.89772 69.5856 7.98016 69.5856 13.0401C69.6986 16.7775 63.4832 19.9975 54.6122 21.3775ZM7.20602 27.7599C7.20602 22.8725 9.07062 18.33 12.2348 14.4201C12.1783 14.7076 12.1783 14.9951 12.1783 15.2251C12.1783 21.3775 21.2188 26.5524 33.819 28.4499C33.819 28.9099 33.819 29.3699 33.819 29.8299C33.819 41.2147 36.9267 50.8746 41.221 54.2095C22.1229 53.0595 7.20602 41.6747 7.20602 27.7599ZM47.8319 54.2095C52.1261 50.8746 55.2338 41.2147 55.2338 29.8299C55.2338 29.3699 55.2338 28.9099 55.2338 28.4499C67.834 26.5524 76.8745 21.32 76.8745 15.2251C76.8745 14.9376 76.8745 14.6501 76.818 14.4201C80.0387 18.33 81.8468 22.93 81.8468 27.7599C81.8468 41.6747 66.8734 53.0595 47.8319 54.2095Z" fill="#0F0F0F"/>
</svg>
